<?xml version="1.0" encoding="UTF-8"?>
<!DOCTYPE svg PUBLIC "-//W3C//DTD SVG 1.1//EN" "http://www.w3.org/Graphics/SVG/1.1/DTD/svg11.dtd">
<svg xmlns="http://www.w3.org/2000/svg" xmlns:xlink="http://www.w3.org/1999/xlink" version="1.1" width="134px" height="95px" viewBox="-0.5 -0.5 134 95"><defs/><g><ellipse cx="47" cy="47" rx="45" ry="45" fill="#000000" stroke="rgb(0, 0, 0)" transform="rotate(2,47,47)" pointer-events="all"/><path d="M 74.46 47 L 74.46 36.72 Q 74.46 29.22 81.6 31.53 L 122.32 44.69 Q 129.46 47 122.32 49.31 L 81.6 62.47 Q 74.46 64.78 74.46 57.28 Z" fill="#000000" stroke="rgb(0, 0, 0)" stroke-miterlimit="10" transform="rotate(15,101.96,47)" pointer-events="all"/><ellipse cx="57" cy="39.5" rx="10" ry="10" fill="rgb(255, 255, 255)" stroke="rgb(0, 0, 0)" transform="rotate(2,57,39.5)" pointer-events="all"/><path d="M 74.46 49.39 L 114.59 62.43 L 74.46 75.48 Z" fill="#000000" stroke="rgb(0, 0, 0)" stroke-miterlimit="10" transform="rotate(2,94.53,62.43)" pointer-events="all"/><rect x="34.46" y="17.45" width="40" height="19.66" fill="#000000" stroke="rgb(0, 0, 0)" transform="rotate(5,54.46,27.28)" pointer-events="all"/><rect x="27.03" y="40.32" width="40" height="19.66" fill="#000000" stroke="rgb(0, 0, 0)" transform="rotate(5,47.03,50.15)" pointer-events="all"/></g></svg>