<?xml version="1.0" encoding="UTF-8"?>
<!DOCTYPE svg PUBLIC "-//W3C//DTD SVG 1.1//EN" "http://www.w3.org/Graphics/SVG/1.1/DTD/svg11.dtd">
<svg xmlns="http://www.w3.org/2000/svg" xmlns:xlink="http://www.w3.org/1999/xlink" version="1.1" width="138px" height="115px" viewBox="-0.5 -0.5 138 115"><defs/><g><ellipse cx="47" cy="67" rx="45" ry="45" fill="#000000" stroke="rgb(0, 0, 0)" transform="rotate(2,47,67)" pointer-events="all"/><path d="M 72.33 31.03 L 72.33 20.75 Q 72.33 13.25 79.52 15.38 L 125.14 28.9 Q 132.33 31.03 125.14 33.16 L 79.52 46.68 Q 72.33 48.81 72.33 41.31 Z" fill="#000000" stroke="rgb(0, 0, 0)" stroke-miterlimit="10" transform="rotate(-30,102.33,31.03)" pointer-events="all"/><path d="M 76.33 64.01 L 128.33 77.05 L 76.33 90.1 Z" fill="#000000" stroke="rgb(0, 0, 0)" stroke-miterlimit="10" transform="rotate(30,102.33,77.05)" pointer-events="all"/><rect x="37" y="67.22" width="40" height="19.66" fill="#000000" stroke="rgb(0, 0, 0)" transform="rotate(-15,57,77.05)" pointer-events="all"/><path d="M 42 42 Q 59.5 59.61 77 42 Q 59.5 59.61 77 77.22 Q 59.5 59.61 42 77.22 Q 59.5 59.61 42 42" fill="rgb(255, 255, 255)" stroke="rgb(0, 0, 0)" stroke-miterlimit="10" transform="rotate(35,59.5,59.61)" pointer-events="all"/><path d="M 90 58.56 Q 98.75 61.01 107.5 58.56 Q 116.25 56.11 125 58.56 L 125 62.65 Q 116.25 60.2 107.5 62.65 Q 98.75 65.1 90 62.65 L 90 58.56 Z" fill="#000000" stroke="rgb(0, 0, 0)" stroke-miterlimit="10" pointer-events="all"/></g></svg>